<svg xmlns="http://www.w3.org/2000/svg" width="512" height="512" viewBox="0 0 512 512" version="1.1">
	<path d="M 233.500 13.102 C 199.278 16.678, 154.262 33.290, 123.950 53.528 C 93.354 73.956, 67.053 101.104, 49.749 130.120 C 33.058 158.109, 21.287 190.307, 16.526 221 C 12.804 245, 13.480 278.925, 18.151 302.500 C 27.545 349.917, 53.979 397.898, 89.315 431.671 C 139.330 479.474, 213.365 504.451, 281.441 496.488 C 338.106 489.859, 392.199 463.227, 429.963 423.365 C 477.113 373.595, 501.762 307.177, 497.010 242.699 C 493.196 190.957, 475.685 144.445, 445.169 105 C 422.544 75.756, 384.937 47.328, 348.611 32.009 C 310.346 15.872, 270.159 9.271, 233.500 13.102 M 234.402 30.016 C 198.534 33.503, 154.864 50.562, 123.863 73.195 C 93.353 95.470, 69.477 123.901, 53.853 156.563 C 17.930 231.660, 23.222 312.765, 68.561 382 C 77.144 395.106, 83.396 402.777, 95.300 414.811 C 127.610 447.471, 170.576 469.657, 219 478.685 C 232.693 481.238, 277.331 481.235, 291 478.681 C 332.677 470.892, 369.228 454.237, 398.947 429.493 C 441.766 393.842, 468.192 348.276, 478.685 292 C 480.075 284.542, 480.454 277.233, 480.447 258 C 480.438 231.754, 479.450 223.541, 473.408 199.500 C 451.203 111.136, 381.671 48.033, 288.872 32.026 C 274.715 29.584, 248.709 28.624, 234.402 30.016 M 343 86.021 C 341.075 87.087, 334.325 89.592, 328 91.588 C 299.716 100.514, 285.460 113.414, 275.760 138.860 C 274.007 143.457, 272.432 146.797, 272.261 146.282 C 272.089 145.766, 272.896 141.554, 274.055 136.922 C 276.762 126.096, 278.118 97.461, 275.888 98.204 C 275.066 98.477, 273.989 101.478, 273.248 105.559 C 272.411 110.173, 270.648 114.775, 267.918 119.476 C 259.202 134.484, 257.243 146.509, 260.500 165 C 261.323 169.675, 261.998 178.114, 261.999 183.754 C 262 196.177, 260.091 228.148, 259.058 233 C 258.407 236.054, 258.233 235.545, 257.691 229 C 257.349 224.875, 256.604 212.725, 256.036 202 C 255.468 191.275, 254.297 179.182, 253.435 175.127 C 249.457 156.428, 239.561 143.589, 225.140 138.417 C 222.588 137.502, 217.160 135.220, 213.079 133.345 C 207.750 130.897, 205.452 130.269, 204.928 131.116 C 204.523 131.772, 205.099 133.231, 206.223 134.398 C 210.512 138.850, 212.085 144.504, 213.006 158.781 C 213.963 173.609, 215.499 179.509, 221.205 190.259 C 225.208 197.801, 235.396 208.836, 243.332 214.226 C 246.933 216.671, 249.688 219.413, 250.489 221.350 C 252.988 227.389, 256.321 287.537, 254.037 285.374 C 253.383 284.754, 251.995 279.176, 250.953 272.977 C 248.656 259.315, 247.786 256.481, 243.135 247.523 C 238.346 238.297, 227.753 227.690, 218.477 222.833 C 197.814 212.013, 180.342 213.379, 156 227.718 L 144.500 234.493 149.694 235.130 C 156.601 235.978, 160.458 238.519, 173.360 250.723 C 192.026 268.378, 204.213 274.403, 224.286 275.901 C 231.267 276.422, 236.815 277.370, 238.753 278.373 C 242.318 280.216, 249.970 290.417, 253.107 297.508 C 254.863 301.478, 255.343 305.358, 256.059 321.374 C 256.529 331.893, 256.934 349.950, 256.958 361.500 C 257.040 401.055, 259.504 429.232, 263.578 437.181 C 265.740 441.399, 266.649 441.966, 271.281 441.985 C 276.155 442.004, 276.565 440.779, 274.590 432.097 C 272.590 423.304, 272.572 414.990, 274.530 405.508 C 276.352 396.689, 278.071 392.356, 282.490 385.449 C 287.711 377.286, 290.414 376.112, 303.500 376.323 C 314.329 376.497, 314.619 376.442, 322.132 372.769 C 334.959 366.499, 341.450 357.778, 343.547 344 C 344.423 338.248, 345.245 336.718, 351.147 329.864 C 357.646 322.316, 357.512 319.363, 350.883 324.083 C 346.805 326.987, 337.793 330, 333.185 330 C 327.266 330, 314.553 333.588, 307.892 337.138 C 300.653 340.997, 293.919 346.775, 290.155 352.358 C 285.978 358.555, 276.308 379.519, 271.995 391.728 C 267.076 405.656, 266.740 404.377, 267.170 373.361 C 267.537 346.852, 268.016 344.608, 275.004 336.648 C 279.941 331.025, 283.175 329.790, 295.039 328.997 C 303.940 328.403, 306.639 327.797, 312.175 325.155 C 320.852 321.014, 326.410 315.265, 331.176 305.500 C 333.684 300.360, 337.032 295.523, 340.540 291.971 C 346.683 285.750, 347.373 284.239, 343.050 286.474 C 338.936 288.602, 330.979 288.376, 322.653 285.897 C 308.806 281.773, 296.962 285.001, 286.339 295.795 C 279.846 302.393, 273.682 314.456, 268.989 329.750 C 267.260 335.387, 265.623 340, 265.351 340 C 264.313 340, 266.262 299.192, 267.584 293.241 C 269.993 282.402, 277.294 269.973, 284.182 264.983 L 288.190 262.080 304.345 262.662 C 318.664 263.179, 321.509 263.003, 329.377 261.111 C 339.014 258.794, 352.019 253.129, 359.673 247.912 C 366.350 243.362, 377.075 232.939, 384.278 224 C 398.244 206.669, 405.991 200.626, 419.740 196.340 C 424.324 194.910, 427.794 193.462, 427.452 193.121 C 427.109 192.779, 420.005 192.500, 411.664 192.500 C 396.692 192.500, 396.366 192.452, 385.897 188.750 C 366.660 181.945, 354.012 182.741, 335.427 191.925 C 319.611 199.741, 296.296 218.414, 286.969 230.734 C 278.987 241.278, 270.454 259.582, 265.633 276.500 C 264.258 281.326, 264.205 280.888, 264.104 263.886 C 263.995 245.477, 264.817 238.142, 267.726 231.571 C 269.304 228.007, 270.490 227.158, 280.483 222.436 C 297.183 214.544, 307.327 206.360, 317.895 192.253 C 331.983 173.446, 338.888 149.591, 338.974 119.434 C 339.018 103.923, 341.853 93.821, 347.675 88.425 C 350.107 86.172, 350.115 83.957, 347.691 84.042 C 347.036 84.065, 344.925 84.956, 343 86.021 M 316.092 120.907 C 305.188 131.963, 295.965 144.636, 284.729 164 C 277.303 176.800, 270 193.547, 270 197.779 C 270 200.063, 272.069 198.003, 283.837 184 C 295.466 170.163, 304.865 156.317, 311.559 143.163 C 316.598 133.260, 324.218 114.885, 323.559 114.225 C 323.316 113.982, 319.956 116.989, 316.092 120.907 M 313.948 156.750 C 309.161 165.237, 297.703 180.408, 279.942 201.778 C 270.833 212.738, 275.230 209.520, 289.601 194.710 C 304.406 179.453, 310.713 170.437, 315.458 157.750 C 316.847 154.037, 317.805 151, 317.587 151 C 317.369 151, 315.731 153.588, 313.948 156.750 M 226.497 161 C 227.480 168.587, 230.372 176.483, 234.355 182.461 C 238.323 188.414, 248.157 200.176, 248.707 199.627 C 249.391 198.942, 246.728 189.672, 243.794 182.528 C 240.256 173.913, 233.211 162.496, 228.969 158.500 L 225.785 155.500 226.497 161 M 369.500 199.675 C 359.590 204.942, 324.995 226.144, 308.333 237.161 C 287.570 250.890, 279.043 258.034, 275.774 264.444 C 273.872 268.171, 274.242 267.947, 282.127 260.595 C 289.239 253.965, 292.383 251.892, 303 246.833 C 327.389 235.212, 334.228 231.409, 344.734 223.626 C 353.618 217.044, 374.654 198.023, 373 198.067 C 372.725 198.074, 371.150 198.798, 369.500 199.675 M 360.500 220.072 C 347.031 231.114, 340.986 235.222, 330 240.800 C 325.325 243.174, 322.625 244.828, 324 244.476 C 328.092 243.430, 341.700 236.353, 349.173 231.385 C 355.129 227.426, 373.468 211.102, 372 211.067 C 371.725 211.060, 366.550 215.113, 360.500 220.072 M 217.155 243.049 C 228.042 253.839, 235.202 263, 232.748 263 C 231.512 263, 228.238 260.537, 213.194 248.291 C 204.286 241.040, 196.356 237.712, 182.750 235.515 C 180.688 235.182, 179.020 235.267, 179.044 235.705 C 179.104 236.798, 205.374 251.833, 223 260.862 C 230.975 264.948, 239.525 270.018, 242 272.130 C 247.780 277.062, 248.439 275.251, 243.071 269.182 C 240.794 266.607, 236.809 261.805, 234.215 258.511 C 226.593 248.830, 219.338 241.527, 212.763 236.915 C 206.857 232.772, 207.034 233.019, 217.155 243.049 M 216 296.789 C 216 297.222, 216.932 299.360, 218.072 301.539 C 219.954 305.136, 220.084 306.567, 219.492 317.118 C 218.518 334.490, 221.148 340.505, 232.579 347.045 C 243.233 353.141, 245.960 360.885, 245.984 385.110 C 246 400.982, 245.291 410, 244.028 410 C 243.643 410, 242.552 407.188, 241.604 403.750 C 240.656 400.313, 237.484 391.875, 234.556 385 C 231.627 378.125, 228.902 371.375, 228.500 370 C 226.192 362.105, 219.256 351.135, 212.062 344 C 200.568 332.600, 188.295 327.100, 169.798 325.060 C 160.324 324.016, 157.800 323.017, 151.006 317.626 C 147.125 314.547, 146.318 314.254, 145.093 315.479 C 143.868 316.703, 144.163 317.439, 147.255 320.860 C 151.835 325.930, 152.082 326.417, 157.930 341.914 C 163.606 356.953, 167.773 363.723, 176.101 371.433 C 184.762 379.451, 194.538 383.872, 206.226 385.055 C 219.228 386.371, 220.265 386.679, 224.812 390.571 C 232.153 396.855, 235.392 404.568, 239.628 425.851 C 242.753 441.554, 243.084 442.200, 247.808 441.806 C 253.990 441.291, 254.188 440.175, 254.772 402.547 C 255.194 375.351, 255.036 368.963, 253.893 366.951 C 252.854 365.122, 252.491 360.058, 252.463 347 C 252.435 334.405, 252.041 328.659, 251.058 326.500 C 250.307 324.850, 249.424 319.936, 249.096 315.579 C 248.424 306.649, 246.602 304.443, 245.477 311.199 C 245.083 313.564, 244.095 317.176, 243.282 319.223 C 241.901 322.703, 241.947 323.195, 243.988 326.723 C 245.189 328.801, 245.440 329.600, 244.546 328.500 C 241.055 324.207, 239.344 322.416, 236.892 320.487 C 233.845 318.090, 228.061 310.132, 225.119 304.288 C 223.953 301.972, 222.014 299.159, 220.811 298.038 C 218.616 295.993, 216 295.314, 216 296.789 M 314.500 298.399 C 308.245 300.377, 304.749 302.477, 293.230 311.172 C 280.055 321.118, 274.380 326.472, 273.090 330.171 C 272.548 331.727, 272.371 333, 272.698 333 C 273.025 333, 275.396 331.032, 277.967 328.627 C 280.747 326.027, 287.882 321.588, 295.571 317.675 C 308.185 311.255, 318.816 303.780, 321.774 299.250 C 323.157 297.134, 323.103 297.004, 320.872 297.067 C 319.567 297.104, 316.700 297.703, 314.500 298.399 M 230 328.081 C 230 330.836, 237.259 342, 239.051 342 C 240.812 342, 240.017 339.465, 236.487 333.821 C 233.209 328.581, 230 325.741, 230 328.081 M 176 343.616 C 176 343.954, 178.083 347.365, 180.629 351.194 C 186.579 360.144, 192.844 365.063, 206.590 371.579 C 216.390 376.225, 218.393 377.630, 223.820 383.668 C 230.527 391.129, 231.866 391.002, 226.750 383.390 C 222.078 376.438, 193.482 352.377, 181.912 345.663 C 177.237 342.949, 176 342.521, 176 343.616 M 324.500 346.846 C 317.391 350.722, 299.381 362.381, 290.766 368.684 C 285.643 372.432, 282.683 376.060, 281.533 380 C 280.968 381.935, 282.174 381.115, 286.873 376.366 C 291.167 372.027, 295.657 368.837, 302.221 365.462 C 313.931 359.442, 320.773 355.103, 325.995 350.385 C 329.434 347.278, 332.824 342.963, 331.785 343.014 C 331.628 343.022, 328.350 344.746, 324.500 346.846 M 243 346.860 C 243 347.925, 246.941 355, 247.535 355 C 248.460 355, 245.286 346.595, 244.228 346.243 C 243.553 346.018, 243 346.295, 243 346.860" stroke="none" fill="black" fill-rule="evenodd"/>
</svg>