<svg version="1.2" xmlns="http://www.w3.org/2000/svg" viewBox="0 0 512 512" width="512" height="512"><style>.a{fill:#e1e1e1}</style><path class="a" d="m237 25l-64 16-45 22-42 39-32 47-17 41-9 44v36l4 35 10 34 21 47 24 32 24 22 31 22 35 14 55 16 54-3 46-9 38-17 44-32 43-49 15-36 15-50 3-32v-43l-18-50-22-45-34-39-42-28-44-22-44-10"/><path fill-rule="evenodd" d="m348.6 32c36.3 15.3 73.9 43.8 96.6 73 30.5 39.4 48 86 51.8 137.7 4.8 64.5-19.9 130.9-67 180.7-37.8 39.8-91.9 66.5-148.6 73.1-68 8-142.1-17-192.1-64.8-35.3-33.8-61.8-81.8-71.1-129.2-4.7-23.6-5.4-57.5-1.7-81.5 4.8-30.7 16.6-62.9 33.2-90.9 17.4-29 43.7-56.1 74.2-76.6 30.4-20.2 75.4-36.8 109.6-40.4 36.7-3.8 76.8 2.8 115.1 18.9zm-114.2-2c-35.9 3.5-79.5 20.6-110.5 43.2-30.5 22.3-54.4 50.7-70 83.4-36 75.1-30.7 156.2 14.7 225.4 8.5 13.1 14.8 20.8 26.7 32.8 32.3 32.7 75.3 54.9 123.7 63.9 13.7 2.5 58.3 2.5 72 0 41.7-7.8 78.2-24.5 107.9-49.2 42.9-35.7 69.3-81.2 79.8-137.5 1.4-7.5 1.8-14.8 1.7-34 0-26.2-1-34.5-7-58.5-22.2-88.4-91.7-151.5-184.5-167.5-14.2-2.4-40.2-3.4-54.5-2zm113.3 54c2.4 0 2.4 2.2 0 4.4-5.8 5.4-8.7 15.5-8.7 31-0.1 30.2-7 54-21.1 72.9-10.6 14.1-20.7 22.2-37.4 30.1-10 4.8-11.2 5.6-12.8 9.2-2.9 6.5-3.7 13.9-3.6 32.3 0.1 17 0.2 17.4 1.5 12.6 4.9-16.9 13.4-35.2 21.4-45.8 9.3-12.3 32.6-31 48.4-38.8 18.6-9.2 31.3-10 50.5-3.2 10.5 3.8 10.8 3.8 25.8 3.8 8.3 0 15.4 0.3 15.8 0.6 0.3 0.4-3.2 1.8-7.8 3.2-13.7 4.3-21.5 10.4-35.4 27.7-7.2 8.9-18 19.4-24.6 23.9-7.7 5.2-20.7 10.9-30.3 13.2-7.9 1.9-10.7 2.1-25.1 1.6l-16.1-0.6-4 2.9c-6.9 5-14.2 17.4-16.6 28.2-1.3 6-3.3 46.8-2.2 46.8 0.2 0 1.9-4.6 3.6-10.3 4.7-15.2 10.8-27.3 17.3-33.9 10.7-10.8 22.5-14 36.4-9.9 8.3 2.5 16.2 2.7 20.3 0.6 4.4-2.3 3.7-0.7-2.5 5.5-3.5 3.5-6.8 8.4-9.3 13.5-4.8 9.8-10.3 15.5-19 19.7-5.6 2.6-8.3 3.2-17.2 3.8-11.8 0.8-15.1 2-20 7.6-7 8-7.5 10.3-7.8 36.8-0.5 31-0.1 32.3 4.8 18.3 4.3-12.2 14-33.1 18.2-39.3 3.7-5.6 10.5-11.4 17.7-15.3 6.7-3.5 19.4-7.1 25.3-7.1 4.6 0 13.6-3 17.7-5.9 6.6-4.7 6.7-1.8 0.2 5.8-5.9 6.8-6.7 8.3-7.6 14.1-2.1 13.8-8.5 22.5-21.4 28.8-7.5 3.6-7.8 3.7-18.6 3.5-13.1-0.2-15.8 1-21 9.1-4.4 7-6.1 11.3-8 20.1-1.9 9.5-1.9 17.8 0.1 26.6 2 8.7 1.6 9.9-3.3 9.9-4.7 0-5.6-0.6-7.7-4.8-4.1-8-6.6-36.1-6.6-75.7-0.1-11.6-0.5-29.6-0.9-40.1-0.8-16-1.2-19.9-3-23.9-3.1-7.1-10.8-17.3-14.3-19.1-2-1-7.5-2-14.5-2.5-20.1-1.5-32.3-7.5-50.9-25.2-12.9-12.2-16.8-14.7-23.7-15.6l-5.2-0.6 11.5-6.8c24.3-14.3 41.8-15.7 62.5-4.9 9.3 4.9 19.8 15.5 24.6 24.7 4.7 9 5.6 11.8 7.9 25.5 1 6.2 2.4 11.8 3 12.4 2.3 2.1-1-58-3.5-64-0.8-2-3.6-4.7-7.2-7.2-7.9-5.4-18.1-16.4-22.1-23.9-5.7-10.8-7.2-16.7-8.2-31.5-0.9-14.3-2.5-20-6.8-24.4-1.1-1.2-1.7-2.6-1.3-3.3 0.6-0.8 2.8-0.2 8.2 2.2 4.1 1.9 9.5 4.2 12 5.1 14.5 5.2 24.4 18 28.3 36.7 0.9 4.1 2.1 16.2 2.6 26.9 0.6 10.7 1.3 22.9 1.7 27 0.5 6.5 0.7 7.1 1.4 4 1-4.9 2.9-36.8 2.9-49.2 0-5.7-0.7-14.1-1.5-18.8-3.3-18.5-1.3-30.5 7.4-45.5 2.7-4.7 4.5-9.3 5.3-13.9 0.8-4.1 1.9-7.1 2.7-7.4 2.2-0.7 0.9 27.9-1.8 38.7-1.2 4.7-2 8.9-1.8 9.4 0.1 0.5 1.7-2.8 3.5-7.4 9.7-25.5 23.9-38.4 52.2-47.3 6.3-2 13.1-4.5 15-5.6 1.9-1 4-1.9 4.7-2zm-31.6 36.9c-10.9 11.1-20.1 23.7-31.4 43.1-7.4 12.8-14.7 29.5-14.7 33.8 0 2.3 2.1 0.2 13.8-13.8 11.7-13.8 21.1-27.7 27.8-40.8 5-9.9 12.6-28.3 12-29-0.3-0.2-3.6 2.8-7.5 6.7zm-2.2 35.8c-4.7 8.5-16.2 23.7-34 45.1-9.1 10.9-4.7 7.7 9.7-7.1 14.8-15.2 21.1-24.3 25.9-37 1.3-3.7 2.3-6.7 2.1-6.7-0.2 0-1.9 2.6-3.7 5.7zm-87.4 4.3c1 7.6 3.9 15.5 7.9 21.5 3.9 5.9 13.8 17.7 14.3 17.1 0.7-0.7-2-9.9-4.9-17.1-3.5-8.6-10.6-20-14.8-24l-3.2-3zm143 38.7c-9.9 5.2-44.5 26.4-61.2 37.5-20.7 13.7-29.3 20.8-32.5 27.2-1.9 3.8-1.6 3.5 6.3-3.8 7.1-6.6 10.3-8.7 20.9-13.8 24.4-11.6 31.2-15.4 41.7-23.2 8.9-6.6 29.9-25.6 28.3-25.5-0.3 0-1.9 0.7-3.5 1.6zm-9 20.4c-13.5 11-19.5 15.1-30.5 20.7-4.7 2.4-7.4 4-6 3.7 4.1-1.1 17.7-8.1 25.2-13.1 5.9-4 24.3-20.3 22.8-20.3-0.3 0-5.5 4-11.5 9zm-143.4 22.9c10.9 10.8 18.1 20 15.6 20-1.2 0-4.5-2.5-19.5-14.7-8.9-7.3-16.9-10.6-30.5-12.8-2-0.3-3.7-0.2-3.7 0.2 0.1 1.1 26.4 16.1 44 25.2 8 4 16.5 9.1 19 11.2 5.8 5 6.4 3.2 1.1-2.9-2.3-2.6-6.3-7.4-8.9-10.7-7.6-9.7-14.9-17-21.4-21.6-6-4.1-5.8-3.9 4.3 6.1zm3.7 55c1.2 1.2 3.1 4 4.3 6.3 2.9 5.8 8.7 13.8 11.8 16.2 2.4 1.9 4.1 3.7 7.6 8 0.9 1.1 0.7 0.3-0.5-1.8-2.1-3.5-2.1-4-0.7-7.5 0.8-2 1.8-5.6 2.2-8 1.1-6.8 2.9-4.6 3.6 4.4 0.3 4.3 1.2 9.3 1.9 10.9 1 2.2 1.4 7.9 1.5 20.5 0 13.1 0.3 18.1 1.4 20 1.1 2 1.3 8.4 0.9 35.5-0.6 37.7-0.8 38.8-7 39.3-4.7 0.4-5.1-0.2-8.2-15.9-4.2-21.3-7.5-29-14.8-35.3-4.5-3.9-5.6-4.2-18.6-5.5-11.7-1.2-21.5-5.6-30.1-13.7-8.3-7.7-12.5-14.4-18.2-29.5-5.8-15.5-6.1-16-10.7-21-3-3.5-3.3-4.2-2.1-5.4 1.2-1.2 2-1 5.9 2.1 6.8 5.4 9.3 6.4 18.8 7.5 18.5 2 30.8 7.5 42.2 18.9 7.2 7.1 14.2 18.1 16.5 26 0.4 1.4 3.1 8.1 6 15 3 6.9 6.1 15.3 7.1 18.8 0.9 3.4 2 6.2 2.4 6.2 1.3 0 2-9 2-24.9-0.1-24.2-2.8-32-13.4-38.1-11.5-6.5-14.1-12.5-13.1-29.9 0.6-10.5 0.4-12-1.4-15.6-1.2-2.1-2.1-4.3-2.1-4.7 0-1.5 2.6-0.8 4.8 1.2zm93.7 0.4c-6.3 2-9.8 4.1-21.3 12.8-13.2 9.9-18.8 15.3-20.1 19-0.6 1.5-0.7 2.8-0.4 2.8 0.3 0 2.7-2 5.3-4.4 2.7-2.6 9.9-7 17.6-10.9 12.6-6.4 23.2-13.9 26.2-18.4 1.3-2.2 1.3-2.3-0.9-2.2-1.3 0-4.2 0.6-6.4 1.3zm-84.5 29.7c0 2.7 7.2 13.9 9 13.9 1.8 0 1-2.5-2.5-8.2-3.3-5.2-6.5-8.1-6.5-5.7zm-54 15.5c0 0.4 2.1 3.8 4.6 7.6 6 8.9 12.2 13.9 26 20.4 9.8 4.6 11.8 6 17.2 12.1 6.7 7.4 8.1 7.3 2.9-0.3-4.6-7-33.2-31-44.8-37.7-4.7-2.8-5.9-3.2-5.9-2.1zm148.5 3.2c-7.1 3.9-25.1 15.6-33.7 21.9-5.2 3.7-8.1 7.4-9.3 11.3-0.5 1.9 0.7 1.1 5.4-3.6 4.3-4.4 8.7-7.6 15.3-10.9 11.7-6.1 18.6-10.4 23.8-15.1 3.4-3.1 6.8-7.4 5.8-7.4-0.2 0-3.5 1.7-7.3 3.8zm-81.5 0.1c0 1 3.9 8.1 4.5 8.1 0.9 0-2.2-8.4-3.3-8.8-0.7-0.2-1.2 0.1-1.2 0.7z"/></svg>